/* XPM */
static char * ball_xpm[] = {
"32 24 4 1",
"L c #00FF00",
"T c #FFFFFF",
"B c #000000",
"G c #808080",
"LLLLLLLLLTTTTTTTTTTLLLLLLLLLLLLL",
"LLLLLLTTTTTTTTTTTTTTTLLLLLLLLLLL",
"LLLLLTTTTTTTTTTTTTTTTTLLLLLLLLLL",
"LLLLTTTTTGTTTTGTTTTTTTTLLLLLLLLL",
"LLLTTTTTTTTTTTTTTTTTGTTTLLLLLLLL",
"LLTTTTTTTTTTTTTTTTTTTTTTTLLLLLLL",
"LLTTTTTTTTTTTTTTTTTTTTTTTLLLLLLL",
"LTTTGTTTTTTTTTTTTTTTTGTTTTLLLLLL",
"LTTTTTTTTTTGTTTTTTTTTTTTTTLLLLLL",
"LTTTTTTTTTTTTTTTTTTTTTTTTTLLLLLL",
"LTTTTTTTTTTTTTTTTTTTTTTTTTLLLLLL",
"LTTTTTTTTTBBTTTBBTTTTTTTTTLLLLLL",
"LTTTTTTTTTTBBTBBTTTTTTGTTTLLLLLL",
"LTTTTTTTTTTTBBBTTTTTTTTTTTLLLLLL",
"LTTTTTTTTTTTTTTTTTTTTTTTTTLLLLLL",
"LTTTTGTTTTTGTTTTTTTGTTTTTTLLLLLL",
"LTTTTTTTTTTTTTTTTTTTTTTTTTLLLLLL",
"LLTTTTTTTTTTTTTTTTTTTTTTTLLLLLLL",
"LLTTTTTGTTTTTTTTTTTTTTGTTLLLLLLL",
"LLLTTTTTTTTTTTTGTTTTTTTTLLLLLLLL",
"LLLLTTTTTTTTTTTTTTTTTTTLLLLLLLLL",
"LLLLLTTTTTTTTGTTTTTTTTLLLLLLLLLL",
"LLLLLLTTTTTTTTTTTTGTTLLLLLLLLLLL",
"LLLLLLLLLTTTTTTTTTTLLLLLLLLLLLLL"
};
