/* XPM */
static char * hole_xpm[] = {
"40 30 4 1",
"T c #00FF00",
"L c #000000",
"| c #EAAA00",
"R c #FF0000",
"TTTTTTTTTTTTTTTTTTTRRRRRRRTTTTTTTTTTTTTT",
"TTTTTTTTTTTTTTTTTTTRRRRRRRRTTTTTTTTTTTTT",
"TTTTTTTTTTTTLLLLLLLRRRRRRRRRTTTTTTTTTTTT",
"TTTTTTTTTTTLLLLLLLLRRRRRRRRRRTTTTTTTTTTT",
"TTTTTTTTTTLLLLLLLLLRRRRRRRRRRRTTTTTTTTTT",
"TTTTTTTTTLLLLLLLLLLRRRRRRRRRRLLTTTTTTTTT",
"TTTTTTTTLLLLLLLLLLLRRRRRRRRRLLLLTTTTTTTT",
"TTTTTTTLLLLLLLLLLLLRRRRRRRLLLLLLLTTTTTTT",
"TTTTTTLLLLLLLLLLLLL|||LLLLLLLLLLLLTTTTTT",
"TTTTTLLLLLLLLLLLLLL|||LLLLLLLLLLLLLTTTTT",
"TTTTLLLLLLLLLLLLLLL|||LLLLLLLLLLLLLLTTTT",
"TTTLLLLLLLLLLLLLLLL|||LLLLLLLLLLLLLLLTTT",
"TTLLLLLLLLLLLLLLLLL|||LLLLLLLLLLLLLLLLTT",
"TLLLLLLLLLLLLLLLLLL|||LLLLLLLLLLLLLLLLLT",
"TLLLLLLLLLLLLLLLLLL|||LLLLLLLLLLLLLLLLLT",
"TLLLLLLLLLLLLLLLLLL|||LLLLLLLLLLLLLLLLLT",
"TLLLLLLLLLLLLLLLLLLLLLLLLLLLLLLLLLLLLLLT",
"TTLLLLLLLLLLLLLLLLLLLLLLLLLLLLLLLLLLLLTT",
"TTTLLLLLLLLLLLLLLLLLLLLLLLLLLLLLLLLLLTTT",
"TTTTLLLLLLLLLLLLLLLLLLLLLLLLLLLLLLLLTTTT",
"TTTTTLLLLLLLLLLLLLLLLLLLLLLLLLLLLLLTTTTT",
"TTTTTTLLLLLLLLLLLLLLLLLLLLLLLLLLLLTTTTTT",
"TTTTTTTLLLLLLLLLLLLLLLLLLLLLLLLLLTTTTTTT",
"TTTTTTTTLLLLLLLLLLLLLLLLLLLLLLLLTTTTTTTT",
"TTTTTTTTTLLLLLLLLLLLLLLLLLLLLLLTTTTTTTTT",
"TTTTTTTTTTLLLLLLLLLLLLLLLLLLLLTTTTTTTTTT",
"TTTTTTTTTTTLLLLLLLLLLLLLLLLLLTTTTTTTTTTT",
"TTTTTTTTTTTTLLLLLLLLLLLLLLLLTTTTTTTTTTTT",
"TTTTTTTTTTTTTLLLLLLLLLLLLLLTTTTTTTTTTTTT",
"TTTTTTTTTTTTTTTTTTTTTTTTTTTTTTTTTTTTTTTT"
};
