/* XPM */
static char * downmiddle[] = {
"8 6 2 1",
"G c #00FF00",
"B c #000000",
"GGGGGGGG",
"GGGGGGGG",
"GGGGGGGG",
"GGGGGGGG",
"GGGGGGGG",
"BBBBBBBB"
};