/* XPM */
static char * rightmiddle[] = {
"8 6 2 1",
"G c #00FF00",
"B c #000000",
"GGGGGGGB",
"GGGGGGGB",
"GGGGGGGB",
"GGGGGGGB",
"GGGGGGGB",
"GGGGGGGB"
};