/* XPM */
static char * downleftcorner[] = {
"8 6 2 1",
"G c #00FF00",
"B c #000000",
"BGGGGGGG",
"BGGGGGGG",
"BGGGGGGG",
"BGGGGGGG",
"BGGGGGGG",
"BBBBBBBB"
};