/* XPM */
static char * mouse_xpm[] = {
"20 20 62 1",
" 	c #000000",
".	c #323232",
"+	c #5C5C5C",
"@	c #383838",
"#	c #767676",
"$	c #CECECE",
"%	c #A8A8A8",
"&	c #3D3D3D",
"*	c #787878",
"=	c #E5E5E5",
"-	c #F6F6F6",
";	c #ADADAD",
">	c #353535",
",	c #E4E4E4",
"'	c #FFFFFF",
")	c #F4F4F4",
"!	c #B3B3B3",
"~	c #474747",
"{	c #C3C3C3",
"]	c #454545",
"^	c #F8F8F8",
"/	c #C5C5C5",
"(	c #424242",
"_	c #F9F9F9",
":	c #CDCDCD",
"<	c #606060",
"[	c #FBFBFB",
"}	c #D1D1D1",
"|	c #626262",
"1	c #FCFCFC",
"2	c #CBCBCB",
"3	c #5A5A5A",
"4	c #F7F7F7",
"5	c #E8E8E8",
"6	c #E0E0E0",
"7	c #D0D0D0",
"8	c #848484",
"9	c #FAFAFA",
"0	c #D8D8D8",
"a	c #2E2E2E",
"b	c #F1F1F1",
"c	c #8B8B8B",
"d	c #777777",
"e	c #D6D6D6",
"f	c #C0C0C0",
"g	c #4F4F4F",
"h	c #6A6A6A",
"i	c #2A2A2A",
"j	c #494949",
"k	c #7E7E7E",
"l	c #4B4B4B",
"m	c #C6C6C6",
"n	c #ECECEC",
"o	c #838383",
"p	c #161616",
"q	c #7F7F7F",
"r	c #BEBEBE",
"s	c #C2C2C2",
"t	c #C1C1C1",
"u	c #6E6E6E",
"v	c #0D0D0D",
"w	c #404040",
"                    ",
"                    ",
"      .+@           ",
"      #$%&          ",
"      *=-;>         ",
"      *,')!~        ",
"      *,''-{]       ",
"      *,'''^/(      ",
"      *,''''_:<     ",
"      *,'''''[}|    ",
"      *,''''''123   ",
"      *,''''45678   ",
"      *,'9410a      ",
"      *=9/{1bc      ",
"      defghb[:i     ",
"      jkl am'no     ",
"          pq^[r     ",
"           ~stu     ",
"           vw&p     ",
"                    "};
