/* XPM */
static char * upleftcorner[] = {
"8 6 2 1",
"G c #00FF00",
"B c #000000",
"BBBBBBBB",
"BGGGGGGG",
"BGGGGGGG",
"BGGGGGGG",
"BGGGGGGG",
"BGGGGGGG"
};