/* XPM */
static char * upmiddle[] = {
"8 6 2 1",
"G c #00FF00",
"B c #000000",
"BBBBBBBB",
"GGGGGGGG",
"GGGGGGGG",
"GGGGGGGG",
"GGGGGGGG",
"GGGGGGGG"
};